<?xml version="1.0" standalone="no"?>
<!DOCTYPE svg PUBLIC "-//W3C//DTD SVG 20010904//EN"
 "http://www.w3.org/TR/2001/REC-SVG-20010904/DTD/svg10.dtd">
<svg version="1.0" xmlns="http://www.w3.org/2000/svg"
 width="630.000000pt" height="645.000000pt" viewBox="0 0 630.000000 645.000000"
 preserveAspectRatio="xMidYMid meet">

<g transform="translate(0.000000,645.000000) scale(0.100000,-0.100000)"
fill="#000000" stroke="none">
<path d="M3217 5646 c-31 -13 -67 -31 -80 -39 -12 -8 -529 -520 -1149 -1137
-1280 -1273 -1193 -1175 -1193 -1340 0 -74 4 -93 32 -152 39 -84 97 -142 181
-181 113 -53 256 -41 361 29 18 12 471 459 1005 992 l972 970 409 -407 c469
-466 466 -463 615 -469 69 -3 96 0 143 18 83 31 153 92 196 170 31 56 36 75
39 151 5 98 -11 161 -56 227 -15 21 -272 281 -572 579 -622 617 -606 604 -760
610 -73 3 -93 0 -143 -21z"/>
<path d="M5349 3587 c-25 -7 -68 -26 -97 -42 -36 -21 -340 -318 -1014 -991
-530 -528 -969 -964 -976 -968 -10 -6 -135 112 -420 396 -476 473 -462 463
-627 463 -87 0 -107 -3 -157 -27 -144 -67 -231 -228 -206 -384 18 -119 10
-109 617 -712 655 -651 625 -627 791 -627 168 1 63 -92 1348 1190 1003 1000
1137 1137 1163 1190 58 119 46 258 -32 371 -79 115 -256 179 -390 141z"/>
</g>
</svg>
