<?xml version="1.0" standalone="no"?>
<!DOCTYPE svg PUBLIC "-//W3C//DTD SVG 20010904//EN"
 "http://www.w3.org/TR/2001/REC-SVG-20010904/DTD/svg10.dtd">
<svg version="1.0" xmlns="http://www.w3.org/2000/svg"
 width="627.000000pt" height="620.000000pt" viewBox="0 0 627.000000 620.000000"
 preserveAspectRatio="xMidYMid meet">

<g transform="translate(0.000000,620.000000) scale(0.100000,-0.100000)"
fill="#000000" stroke="none">
<path d="M985 5864 c-11 -3 -30 -7 -42 -10 -32 -6 -91 -61 -113 -103 -54 -106
-129 -368 -155 -539 -20 -134 -20 -381 1 -503 32 -190 108 -374 217 -524 28
-39 306 -327 629 -651 318 -319 575 -583 572 -587 -4 -4 -16 -7 -26 -7 -11 0
-33 -7 -51 -16 -46 -23 -1426 -1403 -1498 -1498 -71 -94 -102 -152 -123 -232
-99 -383 136 -741 520 -793 62 -9 100 -8 175 4 121 18 206 52 289 114 87 66
1503 1487 1525 1530 9 19 18 55 19 80 l1 46 45 1 c58 1 94 20 170 91 52 48 63
54 74 42 7 -8 361 -403 786 -879 425 -476 798 -885 829 -909 143 -112 330
-154 518 -115 104 21 146 39 231 97 155 106 243 260 267 463 14 127 -34 309
-110 416 -21 29 -419 434 -884 900 -465 466 -843 849 -841 851 13 9 95 28 189
42 177 26 299 76 436 177 89 65 1157 1131 1181 1178 23 47 23 144 -1 190 -22
44 -229 252 -273 274 -18 9 -54 18 -80 19 l-47 2 -1 46 c-3 68 -25 103 -148
225 -123 123 -154 144 -224 147 l-47 2 -1 45 c0 25 -9 61 -19 80 -23 45 -239
262 -284 285 -45 23 -127 23 -171 1 -19 -10 -290 -273 -602 -585 -587 -587
-629 -634 -694 -779 -29 -66 -60 -180 -69 -252 -7 -60 -35 -192 -42 -200 -2
-2 -410 401 -906 897 -496 495 -918 909 -937 918 -26 14 -65 19 -150 21 -63 2
-124 1 -135 -2z m4476 -4739 c76 -173 -57 -375 -247 -375 -47 0 -134 35 -169
67 -17 16 -406 449 -866 963 -561 627 -849 942 -876 957 -95 54 -170 36 -277
-66 l-62 -60 -881 882 c-484 485 -895 904 -913 930 -43 65 -93 176 -120 267
-30 104 -39 356 -17 485 15 85 52 225 77 290 l11 29 2159 -2159 c1834 -1835
2163 -2168 2181 -2210z m-1477 3298 c109 -109 138 -133 175 -143 25 -6 56 -10
71 -8 23 4 26 1 22 -22 -2 -15 2 -46 8 -71 10 -37 34 -66 143 -175 114 -114
139 -134 181 -145 l49 -14 -112 -106 c-151 -145 -254 -197 -420 -215 l-63 -7
-272 272 -273 272 13 82 c27 178 69 255 217 405 l102 103 14 -48 c11 -41 33
-67 145 -180z m-2154 -2949 c-724 -725 -711 -714 -821 -714 -156 0 -274 114
-274 265 0 115 -14 98 714 828 l666 667 190 -190 190 -190 -665 -666z"/>
</g>
</svg>
