<?xml version="1.0" standalone="no"?>
<!DOCTYPE svg PUBLIC "-//W3C//DTD SVG 20010904//EN"
 "http://www.w3.org/TR/2001/REC-SVG-20010904/DTD/svg10.dtd">
<svg version="1.0" xmlns="http://www.w3.org/2000/svg"
 width="512.000000pt" height="512.000000pt" viewBox="0 0 512.000000 512.000000"
 preserveAspectRatio="xMidYMid meet">

<g transform="translate(0.000000,512.000000) scale(0.100000,-0.100000)"
fill="#000000" stroke="none">
<path d="M1140 5107 c-45 -22 -1094 -946 -1117 -985 l-23 -37 0 -1983 c0
-1927 1 -1984 19 -2020 22 -43 84 -82 130 -82 51 0 108 35 131 80 20 39 20 57
20 1030 l0 990 150 0 150 0 0 -990 c0 -953 1 -992 19 -1028 22 -43 84 -82 130
-82 51 0 108 35 131 80 16 31 20 59 20 130 l0 90 300 0 300 0 0 -90 c0 -69 4
-100 19 -128 22 -43 84 -82 130 -82 51 0 108 35 131 80 20 39 20 57 20 1030
l0 990 150 0 150 0 0 -990 c0 -953 1 -992 19 -1028 22 -43 84 -82 130 -82 51
0 108 35 131 80 20 38 20 57 20 1020 l0 980 50 -19 c152 -58 311 -213 473
-461 30 -47 124 -204 209 -350 287 -493 400 -654 587 -841 207 -206 396 -316
650 -376 95 -23 133 -26 367 -30 251 -5 262 -5 302 16 28 14 49 35 62 61 19
37 20 58 20 370 0 312 -1 333 -20 370 -36 71 -69 80 -287 80 -249 0 -294 12
-420 112 -123 97 -221 238 -473 678 -265 463 -402 660 -590 850 -184 186 -378
310 -601 384 -97 33 -251 66 -305 66 l-24 0 0 548 0 547 -23 37 c-26 45 -1094
982 -1129 991 -35 10 -80 7 -108 -6z m389 -624 l322 -283 -648 0 -648 0 25 25
c53 53 615 543 621 542 3 -1 151 -129 328 -284z m571 -1333 l0 -750 -150 0
-150 0 0 333 c0 300 -2 342 -20 411 -29 113 -73 190 -160 276 -86 87 -163 131
-276 160 -141 36 -294 18 -427 -52 -81 -42 -203 -164 -245 -245 -65 -124 -72
-177 -72 -550 l0 -333 -150 0 -150 0 0 750 0 750 900 0 900 0 0 -750z m-766
116 c62 -31 109 -80 140 -145 20 -43 21 -65 24 -383 l3 -338 -301 0 -300 0 0
318 c0 350 4 384 59 459 84 116 243 154 375 89z m1256 -612 c184 -52 377 -170
529 -323 163 -165 293 -355 554 -812 240 -420 335 -559 474 -690 174 -164 335
-229 568 -229 l105 0 0 -151 0 -152 -157 6 c-195 7 -286 28 -438 102 -216 105
-384 273 -588 586 -40 63 -147 240 -236 394 -90 154 -193 325 -228 380 -135
206 -284 375 -415 468 -82 58 -217 123 -294 140 l-59 14 -3 152 -3 153 53 -7
c29 -4 91 -18 138 -31z m-1090 -704 l0 -150 -300 0 -300 0 0 150 0 150 300 0
300 0 0 -150z m0 -600 l0 -150 -300 0 -300 0 0 150 0 150 300 0 300 0 0 -150z
m0 -600 l0 -150 -300 0 -300 0 0 150 0 150 300 0 300 0 0 -150z"/>
</g>
</svg>
