<?xml version="1.0" standalone="no"?>
<!DOCTYPE svg PUBLIC "-//W3C//DTD SVG 20010904//EN"
 "http://www.w3.org/TR/2001/REC-SVG-20010904/DTD/svg10.dtd">
<svg version="1.0" xmlns="http://www.w3.org/2000/svg"
 width="879.000000pt" height="1024.000000pt" viewBox="0 0 879.000000 1024.000000"
 preserveAspectRatio="xMidYMid meet">

<g transform="translate(0.000000,1024.000000) scale(0.100000,-0.100000)"
fill="#000000" stroke="none">
<path d="M40 9235 l0 -965 385 0 385 0 0 287 0 288 290 -290 290 -290 -290
-290 -290 -290 290 -290 290 -290 288 288 c158 158 292 287 297 287 5 0 51
-41 102 -92 l92 -91 -43 -56 c-462 -605 -660 -1402 -536 -2160 167 -1023 875
-1872 1855 -2223 120 -43 328 -98 443 -118 l72 -12 -2 -501 -3 -502 -552 -3
-553 -2 0 -435 0 -435 555 0 555 0 0 -505 0 -505 435 0 435 0 0 505 0 505 555
0 555 0 0 435 0 435 -552 2 -553 3 -3 502 -2 502 37 7 c1156 199 2075 1085
2312 2230 58 282 73 650 37 919 -65 488 -243 935 -523 1319 l-65 89 676 676
676 676 0 -628 0 -627 385 0 385 0 0 1305 0 1305 -1305 0 -1305 0 0 -385 0
-385 627 0 628 0 -684 -684 -684 -684 -98 64 c-358 232 -788 385 -1224 435
-141 17 -478 17 -620 0 -452 -52 -900 -215 -1266 -462 l-56 -38 -104 105 -104
104 290 290 290 290 -290 290 -290 290 -290 -290 -290 -290 -290 290 -290 290
288 0 287 0 0 385 0 385 -965 0 -965 0 0 -965z m4561 -1465 c316 -32 654 -152
909 -322 331 -221 597 -537 750 -893 371 -861 108 -1864 -635 -2424 -367 -277
-770 -412 -1230 -412 -241 0 -430 29 -644 101 -762 256 -1301 933 -1380 1734
-74 744 276 1473 909 1894 248 165 594 289 891 321 121 12 311 13 430 1z"/>
</g>
</svg>
