<?xml version="1.0" standalone="no"?>
<!DOCTYPE svg PUBLIC "-//W3C//DTD SVG 20010904//EN"
 "http://www.w3.org/TR/2001/REC-SVG-20010904/DTD/svg10.dtd">
<svg version="1.0" xmlns="http://www.w3.org/2000/svg"
 width="512.000000pt" height="512.000000pt" viewBox="0 0 512.000000 512.000000"
 preserveAspectRatio="xMidYMid meet">

<g transform="translate(0.000000,512.000000) scale(0.100000,-0.100000)"
fill="#000000" stroke="none">
<path d="M2314 5105 c-166 -29 -330 -95 -478 -192 -90 -59 -278 -247 -339
-339 -149 -227 -216 -467 -204 -739 14 -311 116 -554 331 -793 105 -115 288
-242 436 -301 241 -96 539 -113 791 -45 406 108 755 458 864 865 83 311 37
675 -119 939 -179 302 -472 519 -801 592 -119 26 -368 33 -481 13z m336 -296
c113 -14 247 -59 345 -117 96 -56 273 -228 323 -314 93 -157 132 -302 133
-484 0 -240 -57 -408 -199 -586 -144 -179 -342 -300 -556 -337 -76 -14 -262
-14 -345 0 -349 56 -659 355 -738 713 -23 100 -22 308 0 408 46 199 144 360
306 503 199 175 452 249 731 214z"/>
<path d="M1445 2643 c-548 -65 -872 -466 -989 -1228 -43 -282 -46 -639 -7
-790 60 -228 213 -420 415 -522 98 -49 159 -69 273 -88 88 -14 243 -16 1468
-13 l1370 4 77 21 c291 82 488 255 581 508 48 133 52 165 51 430 0 316 -28
531 -101 790 -89 314 -263 591 -454 723 -127 86 -290 145 -456 163 -149 16
-174 8 -398 -136 -264 -169 -437 -232 -666 -242 -155 -7 -258 7 -399 54 -139
46 -205 80 -390 198 -200 129 -245 144 -375 128z m244 -402 c176 -112 226
-138 351 -186 340 -130 694 -130 1028 -1 127 49 198 87 363 192 167 107 181
111 323 74 108 -27 190 -74 267 -150 114 -114 182 -231 248 -426 77 -231 112
-476 115 -789 1 -191 -1 -216 -21 -280 -56 -179 -187 -299 -383 -352 -61 -17
-156 -18 -1425 -18 -1269 0 -1364 1 -1425 18 -205 55 -343 192 -391 387 -17
65 -16 387 1 544 55 516 237 893 490 1018 87 43 172 66 249 67 52 1 61 -3 210
-98z"/>
</g>
</svg>
